<?xml version="1.0" standalone="no"?>
<!DOCTYPE svg PUBLIC "-//W3C//DTD SVG 20010904//EN"
 "http://www.w3.org/TR/2001/REC-SVG-20010904/DTD/svg10.dtd">
<svg version="1.0" xmlns="http://www.w3.org/2000/svg"
 width="500.000000pt" height="500.000000pt" viewBox="0 0 500.000000 500.000000"
 preserveAspectRatio="xMidYMid meet">

<g transform="translate(0.000000,500.000000) scale(0.100000,-0.100000)"
fill="#000000" stroke="none">
<path d="M2410 4001 c-342 -37 -664 -194 -921 -450 -219 -220 -359 -472 -431
-780 -25 -109 -36 -420 -19 -543 23 -158 90 -368 118 -368 5 0 15 4 23 10 12
7 9 23 -17 102 -217 644 37 1364 612 1737 492 319 1108 312 1575 -17 96 -68
258 -235 322 -332 235 -357 302 -755 197 -1168 -45 -176 -165 -442 -191 -426
-7 4 -8 2 -4 -4 9 -15 -23 -64 -37 -55 -6 3 -7 1 -3 -5 9 -15 -64 -111 -152
-200 -285 -289 -645 -442 -1036 -442 -209 0 -347 28 -549 111 -136 56 -290
163 -419 290 -63 62 -85 79 -97 72 -29 -19 -22 -35 56 -114 202 -209 479 -353
772 -403 288 -49 633 4 897 137 209 105 439 302 574 492 205 286 312 647 294
990 -32 608 -408 1110 -974 1299 -58 19 -143 42 -190 50 -108 19 -303 27 -400
17z"/>
<path d="M1485 1629 c-4 -6 -5 -12 -2 -15 2 -3 7 2 10 11 7 17 1 20 -8 4z"/>
<path d="M1430 1611 c0 -5 7 -15 17 -22 15 -13 15 -12 4 9 -12 23 -21 28 -21
13z"/>
<path d="M1470 1579 c0 -5 5 -7 10 -4 6 3 10 8 10 11 0 2 -4 4 -10 4 -5 0 -10
-5 -10 -11z"/>
<path d="M1489 1563 c-13 -16 -12 -17 4 -4 9 7 17 15 17 17 0 8 -8 3 -21 -13z"/>
<path d="M1577 1546 c-15 -11 -15 -15 -3 -25 11 -9 16 -9 22 0 4 8 3 9 -4 5
-16 -9 -15 7 0 22 16 16 7 15 -15 -2z"/>
<path d="M1521 1537 c-8 -11 -4 -19 17 -38 l27 -24 -22 26 c-18 19 -20 28 -11
37 7 7 9 12 6 12 -3 0 -11 -6 -17 -13z"/>
<path d="M1540 1526 c0 -2 8 -10 18 -17 15 -13 16 -12 3 4 -13 16 -21 21 -21
13z"/>
<path d="M1579 1498 c-6 -20 -6 -37 1 -33 4 3 10 -5 13 -16 3 -12 10 -18 16
-14 15 9 14 28 -1 19 -8 -4 -9 -3 -5 2 11 11 68 14 61 3 -3 -5 1 -6 9 -3 8 3
19 -2 26 -9 9 -12 8 -15 -6 -13 -10 0 -17 -4 -16 -9 1 -6 -7 -11 -17 -11 -10
0 -17 4 -14 7 6 10 -15 23 -23 15 -10 -10 30 -47 44 -42 7 3 21 -7 32 -22 11
-15 32 -34 48 -42 15 -8 36 -20 45 -28 9 -8 22 -11 29 -6 8 4 10 3 5 -4 -6
-11 6 -16 27 -13 4 0 7 -4 7 -10 0 -8 5 -7 15 1 9 7 18 10 22 6 3 -3 1 -6 -5
-6 -7 0 -12 -5 -12 -11 0 -5 4 -8 9 -5 5 4 11 2 13 -4 4 -13 127 -63 220 -89
104 -29 265 -51 383 -51 112 0 267 19 259 31 -3 5 2 6 11 3 19 -8 175 35 175
48 0 5 4 7 9 3 5 -3 12 -1 16 4 3 6 13 7 23 4 15 -6 15 -5 3 10 -8 10 -11 20
-7 24 3 3 6 2 6 -4 0 -6 7 -14 16 -17 12 -5 15 -2 10 9 -3 9 -2 13 4 10 6 -3
10 -1 10 5 0 6 5 8 11 4 8 -4 7 -9 -2 -15 -8 -5 -9 -9 -4 -9 12 0 75 38 75 45
0 3 -9 1 -19 -5 -28 -14 -35 -12 -17 5 18 18 43 19 49 3 4 -10 6 -10 6 0 1 7
6 10 11 7 13 -8 13 16 -1 35 -9 13 -10 13 -6 -1 4 -14 -3 -16 -48 -15 -29 1
-53 5 -52 11 1 6 -9 8 -23 6 -27 -5 -41 -4 -114 5 -28 3 -56 12 -63 19 -9 9
-30 12 -71 8 -44 -4 -67 -1 -92 12 -23 12 -35 14 -38 6 -5 -14 -82 -15 -82 -1
0 6 -18 10 -40 10 -22 0 -40 5 -40 10 0 6 -18 10 -40 10 -22 0 -40 -4 -40 -10
0 -15 -16 -12 -34 5 -11 11 -39 15 -110 15 -57 0 -96 4 -96 10 0 6 -18 10 -40
10 -22 0 -40 -4 -40 -10 0 -15 -19 -12 -36 5 -10 10 -35 15 -70 15 -33 0 -54
4 -54 11 0 8 -17 10 -52 6 -35 -3 -62 0 -80 9 -26 14 -28 13 -28 -7 0 -11 -5
-19 -11 -17 -6 2 -10 7 -9 11 2 19 -31 36 -71 35 -68 -1 -81 1 -74 12 3 6 1
10 -4 10 -6 0 -11 -1 -12 -2z m154 -112 c-6 -23 -9 -24 -20 -7 -10 16 -9 19 5
17 9 -2 16 -6 15 -10z m330 -13 c-13 -2 -35 -2 -50 0 -16 2 -5 4 22 4 28 0 40
-2 28 -4z m657 -74 c0 -4 -7 -6 -15 -3 -8 4 -15 10 -15 15 0 4 7 6 15 3 8 -4
15 -10 15 -15z m294 -10 c-2 -4 2 -10 8 -12 7 -3 -2 -6 -20 -6 -27 -1 -31 1
-20 12 13 14 41 19 32 6z"/>
<path d="M1643 1443 c14 -14 19 -15 29 -4 9 9 9 12 1 7 -6 -3 -14 -2 -18 4 -3
5 -11 10 -18 10 -6 0 -4 -7 6 -17z"/>
<path d="M3214 1385 c-19 -15 -19 -15 1 -8 l20 6 -20 -24 -20 -24 20 16 c11
10 29 19 40 22 18 4 17 5 -3 6 -13 0 -20 6 -17 11 9 14 2 12 -21 -5z"/>
<path d="M3281 1361 c-8 -5 -20 -7 -27 -4 -6 2 -15 0 -18 -5 -8 -13 44 -6 57
7 13 13 7 14 -12 2z"/>
<path d="M3205 1320 c-3 -5 -1 -10 4 -10 6 0 11 5 11 10 0 6 -2 10 -4 10 -3 0
-8 -4 -11 -10z"/>
<path d="M3075 1310 c11 -5 29 -8 40 -8 16 0 15 2 -5 8 -34 11 -60 11 -35 0z"/>
<path d="M3173 1298 c-2 -16 1 -18 10 -9 7 7 8 14 1 21 -6 6 -10 2 -11 -12z"/>
</g>
</svg>
